<svg width="100" height="100" viewBox="0 0 100 100" fill="none" xmlns="http://www.w3.org/2000/svg">
<g clip-path="url(#clip0_1_11)">
<path d="M50 50C54.0423 50 57.919 48.3942 60.7773 45.5359C63.6356 42.6776 65.2414 38.8009 65.2414 34.7586C65.2414 30.7164 63.6356 26.8397 60.7773 23.9813C57.919 21.123 54.0423 19.5172 50 19.5172C45.9578 19.5172 42.0811 21.123 39.2228 23.9813C36.3645 26.8397 34.7587 30.7164 34.7587 34.7586C34.7587 38.8009 36.3645 42.6776 39.2228 45.5359C42.0811 48.3942 45.9578 50 50 50ZM44.5584 55.7155C32.8297 55.7155 23.3276 65.2176 23.3276 76.9463C23.3276 88.8991 24.9113 90.4828 26.8641 90.4828H73.136C75.0888 90.4828 76.6725 88.8991 76.6725 76.9463C76.6725 65.2176 67.1704 55.7155 55.4417 55.7155H44.5584Z" fill="black"/>
<circle cx="50" cy="50" r="45" stroke="black" stroke-width="10"/>
</g>
<defs>
<clipPath id="clip0_1_11">
<rect width="100" height="100" fill="white"/>
</clipPath>
</defs>
</svg>
