<svg width="88" height="78" viewBox="0 0 88 78" fill="none" xmlns="http://www.w3.org/2000/svg">
<path d="M87.2785 38.5231C87.2785 41.2297 85.023 43.3498 82.4668 43.3498H77.6552L77.7604 67.4382C77.7604 67.8442 77.7304 68.2502 77.6853 68.6561V71.077C77.6853 74.4001 74.9937 77.0916 71.6707 77.0916H69.2649C69.0995 77.0916 68.9341 77.0916 68.7687 77.0765C68.5582 77.0916 68.3476 77.0916 68.1371 77.0916H63.2503H59.6415C56.3185 77.0916 53.627 74.4001 53.627 71.077V67.4683V57.8449C53.627 55.1835 51.4768 53.0333 48.8153 53.0333H39.192C36.5305 53.0333 34.3803 55.1835 34.3803 57.8449V67.4683V71.077C34.3803 74.4001 31.6888 77.0916 28.3658 77.0916H24.757H19.9604C19.7349 77.0916 19.5093 77.0765 19.2838 77.0615C19.1033 77.0765 18.9229 77.0916 18.7424 77.0916H16.3366C13.0136 77.0916 10.322 74.4001 10.322 71.077V54.2362C10.322 54.1009 10.322 53.9505 10.3371 53.8152V43.3498H5.51039C2.80383 43.3498 0.69873 41.2447 0.69873 38.5231C0.69873 37.1699 1.14982 35.9669 2.20237 34.9144L40.7558 1.30796C41.8083 0.255413 43.0113 0.105049 44.0638 0.105049C45.1164 0.105049 46.3193 0.405778 47.2215 1.1576L85.6245 34.9144C86.8274 35.9669 87.4289 37.1699 87.2785 38.5231Z" fill="black"/>
</svg>
