<svg width="73" height="73" viewBox="0 0 73 73" fill="none" xmlns="http://www.w3.org/2000/svg">
<path d="M45.5643 0.765617C43.0716 0.765617 41.0578 2.77944 41.0578 5.27208C41.0578 7.76472 43.0716 9.77854 45.5643 9.77854H57.2106L28.8622 38.1411C27.1018 39.9014 27.1018 42.7602 28.8622 44.5205C30.6225 46.2809 33.4813 46.2809 35.2416 44.5205L63.5901 16.158V27.8044C63.5901 30.297 65.6039 32.3109 68.0966 32.3109C70.5892 32.3109 72.603 30.297 72.603 27.8044V5.27208C72.603 2.77944 70.5892 0.765617 68.0966 0.765617H45.5643ZM11.7658 5.27208C5.54124 5.27208 0.499634 10.3137 0.499634 16.5382V61.6029C0.499634 67.8274 5.54124 72.869 11.7658 72.869H56.8304C63.055 72.869 68.0966 67.8274 68.0966 61.6029V45.8302C68.0966 43.3376 66.0827 41.3238 63.5901 41.3238C61.0975 41.3238 59.0836 43.3376 59.0836 45.8302V61.6029C59.0836 62.8421 58.0697 63.8561 56.8304 63.8561H11.7658C10.5265 63.8561 9.51256 62.8421 9.51256 61.6029V16.5382C9.51256 15.299 10.5265 14.285 11.7658 14.285H27.5384C30.031 14.285 32.0449 12.2712 32.0449 9.77854C32.0449 7.2859 30.031 5.27208 27.5384 5.27208H11.7658Z" fill="#01AD9D"/>
</svg>
