<svg width="100" height="100" viewBox="0 0 100 100" fill="none" xmlns="http://www.w3.org/2000/svg">
<path d="M76.0527 40.8785C76.0527 48.6386 73.5336 55.807 69.29 61.6228L90.6937 83.0434C92.807 85.1567 92.807 88.5887 90.6937 90.702C88.5804 92.8153 85.1484 92.8153 83.035 90.702L61.6314 69.2815C55.8156 73.5419 48.6472 76.0441 40.8871 76.0441C21.4615 76.0441 5.72156 60.3041 5.72156 40.8785C5.72156 21.4529 21.4615 5.71298 40.8871 5.71298C60.3127 5.71298 76.0527 21.4529 76.0527 40.8785ZM40.8871 65.2239C44.0842 65.2239 47.25 64.5942 50.2037 63.3707C53.1574 62.1473 55.8412 60.354 58.1019 58.0933C60.3626 55.8326 62.1558 53.1488 63.3793 50.1951C64.6028 47.2414 65.2325 44.0756 65.2325 40.8785C65.2325 37.6815 64.6028 34.5157 63.3793 31.562C62.1558 28.6082 60.3626 25.9244 58.1019 23.6637C55.8412 21.4031 53.1574 19.6098 50.2037 18.3863C47.25 17.1629 44.0842 16.5332 40.8871 16.5332C37.69 16.5332 34.5242 17.1629 31.5705 18.3863C28.6168 19.6098 25.933 21.4031 23.6723 23.6637C21.4116 25.9244 19.6184 28.6082 18.3949 31.562C17.1714 34.5157 16.5417 37.6815 16.5417 40.8785C16.5417 44.0756 17.1714 47.2414 18.3949 50.1951C19.6184 53.1488 21.4116 55.8326 23.6723 58.0933C25.933 60.354 28.6168 62.1473 31.5705 63.3707C34.5242 64.5942 37.69 65.2239 40.8871 65.2239Z" fill="black"/>
</svg>
